<?xml version="1.0" encoding="UTF-8"?>
<svg width="62px" height="65px" viewBox="0 0 62 65" version="1.1" xmlns="http://www.w3.org/2000/svg" xmlns:xlink="http://www.w3.org/1999/xlink">
    <title>暂无订单</title>
    <defs>
        <linearGradient x1="82.9274869%" y1="81.5700443%" x2="14.8356651%" y2="16.9761928%" id="linearGradient-1">
            <stop stop-color="#BEC9DA" offset="0%"></stop>
            <stop stop-color="#CED8E7" offset="100%"></stop>
        </linearGradient>
        <linearGradient x1="85.6021891%" y1="119.463444%" x2="25.6663302%" y2="15.3198801%" id="linearGradient-2">
            <stop stop-color="#C6D0E0" offset="0%"></stop>
            <stop stop-color="#F2F4FA" offset="100%"></stop>
        </linearGradient>
        <linearGradient x1="0%" y1="0%" x2="112.904991%" y2="0%" id="linearGradient-3">
            <stop stop-color="#C9D3E1" offset="0%"></stop>
            <stop stop-color="#C9D2E0" offset="100%"></stop>
        </linearGradient>
        <linearGradient x1="0%" y1="0%" x2="112.904991%" y2="0%" id="linearGradient-4">
            <stop stop-color="#C9D3E1" offset="0%"></stop>
            <stop stop-color="#C9D2E0" offset="100%"></stop>
        </linearGradient>
        <linearGradient x1="105.076062%" y1="51.2722081%" x2="-8.81751951%" y2="48.6692083%" id="linearGradient-5">
            <stop stop-color="#BEC9DA" offset="0%"></stop>
            <stop stop-color="#CED8E7" offset="100%"></stop>
        </linearGradient>
        <linearGradient x1="79.6976343%" y1="53.8389615%" x2="23.0716752%" y2="45.7514533%" id="linearGradient-6">
            <stop stop-color="#E1E6EE" offset="0%"></stop>
            <stop stop-color="#EFF2F6" offset="100%"></stop>
        </linearGradient>
        <linearGradient x1="35.6101452%" y1="59.5644357%" x2="72.9223354%" y2="38.5169118%" id="linearGradient-7">
            <stop stop-color="#C4D2DF" offset="0%"></stop>
            <stop stop-color="#E4EDF5" offset="100%"></stop>
        </linearGradient>
        <linearGradient x1="0%" y1="0%" x2="112.904991%" y2="0%" id="linearGradient-8">
            <stop stop-color="#BFD0DE" offset="0%"></stop>
            <stop stop-color="#C8D1E0" offset="100%"></stop>
        </linearGradient>
        <linearGradient x1="0%" y1="0%" x2="112.904991%" y2="0%" id="linearGradient-9">
            <stop stop-color="#BFD0DE" offset="0%"></stop>
            <stop stop-color="#C9D2E1" offset="100%"></stop>
        </linearGradient>
        <linearGradient x1="50%" y1="100%" x2="50%" y2="0%" id="linearGradient-10">
            <stop stop-color="#FFFFFF" stop-opacity="0" offset="0%"></stop>
            <stop stop-color="#C8D6E3" offset="100%"></stop>
        </linearGradient>
        <linearGradient x1="73.7768501%" y1="0%" x2="4.42107547%" y2="100%" id="linearGradient-11">
            <stop stop-color="#D7E3ED" offset="0%"></stop>
            <stop stop-color="#FDFEFE" offset="100%"></stop>
        </linearGradient>
        <linearGradient x1="74.6055212%" y1="0%" x2="2.83255811%" y2="100%" id="linearGradient-12">
            <stop stop-color="#B9C8D7" offset="0%"></stop>
            <stop stop-color="#E6EDF3" offset="100%"></stop>
        </linearGradient>
    </defs>
    <g id="质押" stroke="none" stroke-width="1" fill="none" fill-rule="evenodd">
        <g id="连接钱包_Transactions列表空状态" transform="translate(-157.000000, -314.000000)">
            <g id="暂无订单" transform="translate(157.001381, 314.007435)">
                <g id="Page-1-Copy" transform="translate(13.221016, 0.000000)">
                    <path d="M33.7500498,52.7259402 L1.98554882,52.7259402 C0.888768927,52.7259402 0,51.6909168 0,50.4151053 L0,8.82027665 C0,7.54393377 0.888768927,6.50937534 1.98554882,6.50937534 L5.95596164,6.50937534 L5.95596164,8.82027665 C5.95596164,10.0962874 6.84473057,11.1311115 7.94128219,11.1311115 L27.7943165,11.1311115 C28.8906398,11.1311115 29.7794087,10.0962874 29.7794087,8.82027665 L29.7794087,6.50937534 L33.7498216,6.50937534 C34.8461449,6.50937534 35.7351422,7.54419947 35.7351422,8.82027665 L35.7351422,50.4145739 C35.7351422,51.6909168 34.8463732,52.7259402 33.7500498,52.7259402" id="Path" fill="url(#linearGradient-1)" fill-rule="nonzero"></path>
                    <path d="M4.48700877,52.6728025 C3.39022888,52.6728025 2.50145995,51.6377791 2.50145995,50.3619676 L2.50145995,8.76713889 C2.50145995,7.49079601 3.39022888,6.45623758 4.48700877,6.45623758 L36.2512815,6.45623758 C37.3476049,6.45623758 38.2366021,7.49106171 38.2366021,8.76713889 L38.2366021,50.3614362 C38.2366021,51.6377791 37.3478331,52.6728025 36.2515098,52.6728025 L4.48700877,52.6728025 Z" id="Fill-1" fill="url(#linearGradient-2)"></path>
                    <rect id="Rectangle" fill="#F2F5F8" fill-rule="nonzero" x="4.64556848" y="11.4777557" width="31.4469251" height="38.3787456" rx="3"></rect>
                    <line x1="9.29113696" y1="20.9827721" x2="20.7733227" y2="20.9827721" id="Line" stroke="url(#linearGradient-3)" stroke-width="3.5" stroke-linecap="round" fill-rule="nonzero"></line>
                    <line x1="9.29113696" y1="28.5150493" x2="31.0496617" y2="28.5150493" id="Line-Copy" stroke="url(#linearGradient-4)" stroke-width="3.5" stroke-linecap="round" fill-rule="nonzero"></line>
                    <line x1="9.29113696" y1="35.3299668" x2="31.0496617" y2="35.3299668" id="Line-Copy-2" stroke="url(#linearGradient-4)" stroke-width="3.5" stroke-linecap="round" fill-rule="nonzero"></line>
                </g>
                <rect id="Rectangle" fill="url(#linearGradient-5)" fill-rule="nonzero" x="24.6562614" y="4.66283825" width="17.8675711" height="3.58679866" rx="1.79339933"></rect>
                <rect id="Rectangle" fill="url(#linearGradient-6)" fill-rule="nonzero" x="26.8003699" y="2.86943892" width="13.579354" height="3.58679866" rx="1.79339933"></rect>
                <path d="M57.9216541,32.9985476 C59.0455191,32.9985476 60.8737276,35.8101749 60.8737276,37.6774601 C62.3000884,40.4392731 62.5268059,43.4143485 58.6049587,43.7311984 L58.6046465,46.9870624 L57.5325922,46.9870624 L57.5317878,43.7499813 C53.2634513,43.5266677 54.1453335,39.1931473 55.123711,37.8447776 C55.123711,35.3204086 56.7977891,32.9985476 57.9216541,32.9985476 Z" id="Combined-Shape" fill="url(#linearGradient-7)" fill-rule="nonzero"></path>
                <g id="Group-6" transform="translate(38.592967, 18.292673)" fill-rule="nonzero" stroke-linecap="round" stroke-width="2.5">
                    <line x1="0" y1="0.179339933" x2="4.92301937" y2="5.12066049" id="Line-2" stroke="url(#linearGradient-8)"></line>
                    <line x1="0" y1="0.179339933" x2="4.92301937" y2="5.12066049" id="Line-2" stroke="url(#linearGradient-9)" transform="translate(2.501460, 2.690099) scale(-1, 1) translate(-2.501460, -2.690099) "></line>
                </g>
                <polygon id="Rectangle" fill-opacity="0.6" fill="url(#linearGradient-10)" fill-rule="nonzero" points="14.1532123 52.7259402 49.7288943 52.6728025 44.9032123 62.0516167 9.02821234 62.0516167"></polygon>
                <path d="M2.14312185,60.2582174 C0.533204882,62.7062582 -0.169682706,63.9531155 0.0344590861,63.9987895 C0.238600878,64.0444635 1.41795703,62.7976061 3.57252754,60.2582174 L2.14312185,60.2582174 Z" id="Path-4" fill="url(#linearGradient-11)" fill-rule="nonzero"></path>
                <path d="M57.5325922,46.9870624 C56.7008254,48.4015663 56.3661566,49.1272771 56.5285859,49.1641946 C56.6910152,49.2011122 57.3830354,48.4754014 58.6046465,46.9870624 L57.5325922,46.9870624 Z" id="Path-4-Copy" fill="url(#linearGradient-12)" fill-rule="nonzero"></path>
            </g>
        </g>
    </g>
</svg>